# xmcd
#
# Track frame offsets:
#	150
#	20225
#	36441
#	53409
#	70973
#	88266
#	109384
#	132796
#	151298
#	173127
#	187677
#	205294
#	222683
#
# Disc length: 3233 seconds
#
# Revision: 1
# Processed by: cddbd v1.5.2PL0 Copyright (c) Steve Scherf et al.
# Submitted via: audiograbber 1.83.01
#
DISCID=be0c9f0d
DTITLE=Carolyn Johnson - Room With a View
DYEAR=2001
DGENRE=Country
TTITLE0=Georgia
TTITLE1=Just Another Girl
TTITLE2=I'll Think Of You That Way
TTITLE3=Love Is Always Worth The Ache
TTITLE4=Complicated
TTITLE5=I Don't Want You To Go (Country Version)
TTITLE6=You Are
TTITLE7=Masterpiece
TTITLE8=Little Bit of This, Little Bit of That
TTITLE9=One Day Closer to You
TTITLE10=Room With A View
TTITLE11=Tumble and Roll
TTITLE12=Not enough to stay
EXTD=
EXTT0=
EXTT1=
EXTT2=
EXTT3=
EXTT4=
EXTT5=
EXTT6=
EXTT7=
EXTT8=
EXTT9=
EXTT10=
EXTT11=
EXTT12=
PLAYORDER=
